<mxfile host="app.diagrams.net" modified="2023-11-30T08:22:37.012Z" agent="Mozilla/5.0 (Windows NT 10.0; Win64; x64; rv:120.0) Gecko/20100101 Firefox/120.0" etag="FxTEhMge-yLLybWGL4eP" version="22.1.5" type="github">
  <diagram name="Page-1" id="13e1069c-82ec-6db2-03f1-153e76fe0fe0">
    <mxGraphModel dx="1975" dy="1051" grid="1" gridSize="10" guides="1" tooltips="1" connect="1" arrows="1" fold="1" page="1" pageScale="1" pageWidth="1200" pageHeight="1920" background="none" math="0" shadow="0">
      <root>
        <mxCell id="0" />
        <mxCell id="1" parent="0" />
        <mxCell id="lyJrj0wZpvNIMdLv7o4I-5" value="User" style="shape=umlActor;verticalLabelPosition=bottom;verticalAlign=top;html=1;" parent="1" vertex="1">
          <mxGeometry x="170" y="90" width="30" height="60" as="geometry" />
        </mxCell>
        <mxCell id="lyJrj0wZpvNIMdLv7o4I-6" value="" style="html=1;points=[[0,0,0,0,5],[0,1,0,0,-5],[1,0,0,0,5],[1,1,0,0,-5]];perimeter=orthogonalPerimeter;outlineConnect=0;targetShapes=umlLifeline;portConstraint=eastwest;newEdgeStyle={&quot;curved&quot;:0,&quot;rounded&quot;:0};" parent="1" vertex="1">
          <mxGeometry x="180" y="230" width="10" height="520" as="geometry" />
        </mxCell>
        <mxCell id="lyJrj0wZpvNIMdLv7o4I-9" value="alt" style="shape=umlFrame;whiteSpace=wrap;html=1;pointerEvents=0;" parent="1" vertex="1">
          <mxGeometry x="60" y="200" width="990" height="610" as="geometry" />
        </mxCell>
        <mxCell id="lyJrj0wZpvNIMdLv7o4I-10" value="View giao dịch" style="shape=umlBoundary;whiteSpace=wrap;html=1;" parent="1" vertex="1">
          <mxGeometry x="485" y="80" width="100" height="80" as="geometry" />
        </mxCell>
        <mxCell id="lyJrj0wZpvNIMdLv7o4I-11" value="Controller giao dịch" style="ellipse;shape=umlControl;whiteSpace=wrap;html=1;" parent="1" vertex="1">
          <mxGeometry x="720" y="80" width="70" height="80" as="geometry" />
        </mxCell>
        <mxCell id="lyJrj0wZpvNIMdLv7o4I-12" value="CSDL Firebase" style="ellipse;shape=umlEntity;whiteSpace=wrap;html=1;" parent="1" vertex="1">
          <mxGeometry x="930" y="80" width="80" height="80" as="geometry" />
        </mxCell>
        <mxCell id="lyJrj0wZpvNIMdLv7o4I-14" value="Hiện thị view cho phép cập nhật thông tin chi tiêu" style="endArrow=block;endFill=1;html=1;align=left;verticalAlign=top;rounded=0;exitX=0;exitY=1;exitDx=0;exitDy=-5;exitPerimeter=0;" parent="1" source="lyJrj0wZpvNIMdLv7o4I-16" target="lyJrj0wZpvNIMdLv7o4I-6" edge="1">
          <mxGeometry x="0.6923" y="5" relative="1" as="geometry">
            <mxPoint x="190" y="320" as="sourcePoint" />
            <mxPoint x="466.1700000000001" y="322.48000000000025" as="targetPoint" />
            <mxPoint as="offset" />
          </mxGeometry>
        </mxCell>
        <mxCell id="lyJrj0wZpvNIMdLv7o4I-15" value="1" style="edgeLabel;resizable=0;html=1;align=left;verticalAlign=bottom;" parent="lyJrj0wZpvNIMdLv7o4I-14" connectable="0" vertex="1">
          <mxGeometry x="-1" relative="1" as="geometry" />
        </mxCell>
        <mxCell id="lyJrj0wZpvNIMdLv7o4I-16" value="" style="html=1;points=[[0,0,0,0,5],[0,1,0,0,-5],[1,0,0,0,5],[1,1,0,0,-5]];perimeter=orthogonalPerimeter;outlineConnect=0;targetShapes=umlLifeline;portConstraint=eastwest;newEdgeStyle={&quot;curved&quot;:0,&quot;rounded&quot;:0};" parent="1" vertex="1">
          <mxGeometry x="530" y="240" width="10" height="80" as="geometry" />
        </mxCell>
        <mxCell id="lyJrj0wZpvNIMdLv7o4I-18" value="&lt;div align=&quot;left&quot;&gt;Người dùng chọn chức năng thêm vào giao dịch chi tiêu&lt;/div&gt;" style="endArrow=block;endFill=1;html=1;align=left;verticalAlign=top;rounded=0;" parent="1" target="lyJrj0wZpvNIMdLv7o4I-16" edge="1">
          <mxGeometry x="-1" relative="1" as="geometry">
            <mxPoint x="200" y="260" as="sourcePoint" />
            <mxPoint x="476" y="262" as="targetPoint" />
          </mxGeometry>
        </mxCell>
        <mxCell id="lyJrj0wZpvNIMdLv7o4I-19" value="1" style="edgeLabel;resizable=0;html=1;align=left;verticalAlign=bottom;" parent="lyJrj0wZpvNIMdLv7o4I-18" connectable="0" vertex="1">
          <mxGeometry x="-1" relative="1" as="geometry" />
        </mxCell>
        <mxCell id="lyJrj0wZpvNIMdLv7o4I-20" value="2" style="edgeLabel;resizable=0;html=1;align=left;verticalAlign=bottom;" parent="1" connectable="0" vertex="1">
          <mxGeometry x="200" y="320" as="geometry" />
        </mxCell>
        <mxCell id="lyJrj0wZpvNIMdLv7o4I-21" value="Thay đổi thêm&amp;nbsp; hoặc sửa&amp;nbsp; thông tin chi tiêu và chọn xác nhận" style="endArrow=block;endFill=1;html=1;align=left;verticalAlign=top;rounded=0;" parent="1" target="lyJrj0wZpvNIMdLv7o4I-23" edge="1">
          <mxGeometry x="-0.5714" relative="1" as="geometry">
            <mxPoint x="190" y="400" as="sourcePoint" />
            <mxPoint x="350" y="400" as="targetPoint" />
            <mxPoint as="offset" />
          </mxGeometry>
        </mxCell>
        <mxCell id="lyJrj0wZpvNIMdLv7o4I-22" value="3" style="edgeLabel;resizable=0;html=1;align=left;verticalAlign=bottom;" parent="lyJrj0wZpvNIMdLv7o4I-21" connectable="0" vertex="1">
          <mxGeometry x="-1" relative="1" as="geometry" />
        </mxCell>
        <mxCell id="lyJrj0wZpvNIMdLv7o4I-23" value="" style="html=1;points=[[0,0,0,0,5],[0,1,0,0,-5],[1,0,0,0,5],[1,1,0,0,-5]];perimeter=orthogonalPerimeter;outlineConnect=0;targetShapes=umlLifeline;portConstraint=eastwest;newEdgeStyle={&quot;curved&quot;:0,&quot;rounded&quot;:0};" parent="1" vertex="1">
          <mxGeometry x="750" y="400" width="10" height="280" as="geometry" />
        </mxCell>
        <mxCell id="lyJrj0wZpvNIMdLv7o4I-24" value="Kiểm tra định dạng thông tin" style="endArrow=block;endFill=1;html=1;align=left;verticalAlign=top;rounded=0;exitX=1.2;exitY=0.108;exitDx=0;exitDy=0;exitPerimeter=0;" parent="1" source="lyJrj0wZpvNIMdLv7o4I-23" target="lyJrj0wZpvNIMdLv7o4I-23" edge="1">
          <mxGeometry x="-0.1228" y="7" relative="1" as="geometry">
            <mxPoint x="535" y="504.76" as="sourcePoint" />
            <mxPoint x="1095" y="504.76" as="targetPoint" />
            <mxPoint as="offset" />
            <Array as="points">
              <mxPoint x="780" y="460" />
            </Array>
          </mxGeometry>
        </mxCell>
        <mxCell id="lyJrj0wZpvNIMdLv7o4I-25" value="3" style="edgeLabel;resizable=0;html=1;align=left;verticalAlign=bottom;" parent="lyJrj0wZpvNIMdLv7o4I-24" connectable="0" vertex="1">
          <mxGeometry x="-1" relative="1" as="geometry" />
        </mxCell>
        <mxCell id="lyJrj0wZpvNIMdLv7o4I-27" value="" style="endArrow=none;dashed=1;html=1;rounded=0;entryX=0.468;entryY=1.041;entryDx=0;entryDy=0;entryPerimeter=0;" parent="1" source="lyJrj0wZpvNIMdLv7o4I-23" target="lyJrj0wZpvNIMdLv7o4I-11" edge="1">
          <mxGeometry width="50" height="50" relative="1" as="geometry">
            <mxPoint x="720" y="210" as="sourcePoint" />
            <mxPoint x="770" y="160" as="targetPoint" />
          </mxGeometry>
        </mxCell>
        <mxCell id="lyJrj0wZpvNIMdLv7o4I-28" value="" style="endArrow=none;dashed=1;html=1;rounded=0;entryX=0.533;entryY=1.039;entryDx=0;entryDy=0;entryPerimeter=0;" parent="1" source="lyJrj0wZpvNIMdLv7o4I-16" edge="1" target="lyJrj0wZpvNIMdLv7o4I-10">
          <mxGeometry width="50" height="50" relative="1" as="geometry">
            <mxPoint x="590" y="397" as="sourcePoint" />
            <mxPoint x="590" y="160" as="targetPoint" />
          </mxGeometry>
        </mxCell>
        <mxCell id="lyJrj0wZpvNIMdLv7o4I-29" value="" style="endArrow=none;dashed=1;html=1;rounded=0;entryX=0.468;entryY=1.041;entryDx=0;entryDy=0;entryPerimeter=0;" parent="1" source="lyJrj0wZpvNIMdLv7o4I-6" edge="1">
          <mxGeometry width="50" height="50" relative="1" as="geometry">
            <mxPoint x="184.66000000000003" y="250" as="sourcePoint" />
            <mxPoint x="184.66000000000003" y="160" as="targetPoint" />
          </mxGeometry>
        </mxCell>
        <mxCell id="lyJrj0wZpvNIMdLv7o4I-31" value="" style="html=1;points=[[0,0,0,0,5],[0,1,0,0,-5],[1,0,0,0,5],[1,1,0,0,-5]];perimeter=orthogonalPerimeter;outlineConnect=0;targetShapes=umlLifeline;portConstraint=eastwest;newEdgeStyle={&quot;curved&quot;:0,&quot;rounded&quot;:0};" parent="1" vertex="1">
          <mxGeometry x="965" y="570" width="10" height="180" as="geometry" />
        </mxCell>
        <mxCell id="lyJrj0wZpvNIMdLv7o4I-32" value="" style="endArrow=none;dashed=1;html=1;rounded=0;entryX=0.5;entryY=1;entryDx=0;entryDy=0;" parent="1" source="lyJrj0wZpvNIMdLv7o4I-31" target="lyJrj0wZpvNIMdLv7o4I-12" edge="1">
          <mxGeometry width="50" height="50" relative="1" as="geometry">
            <mxPoint x="500" y="350" as="sourcePoint" />
            <mxPoint x="550" y="300" as="targetPoint" />
          </mxGeometry>
        </mxCell>
        <mxCell id="bTUChL5ESr7YYkA7Wxx2-2" value="" style="endArrow=block;endFill=1;html=1;align=left;verticalAlign=top;rounded=0;" edge="1" parent="1">
          <mxGeometry x="0.1429" relative="1" as="geometry">
            <mxPoint x="760" y="650" as="sourcePoint" />
            <mxPoint x="965" y="650" as="targetPoint" />
            <mxPoint as="offset" />
          </mxGeometry>
        </mxCell>
        <mxCell id="bTUChL5ESr7YYkA7Wxx2-3" value="4" style="edgeLabel;resizable=0;html=1;align=left;verticalAlign=bottom;" connectable="0" vertex="1" parent="bTUChL5ESr7YYkA7Wxx2-2">
          <mxGeometry x="-1" relative="1" as="geometry">
            <mxPoint x="20" as="offset" />
          </mxGeometry>
        </mxCell>
        <mxCell id="bTUChL5ESr7YYkA7Wxx2-4" value="Ghi vào trong cơ sở dữ liệu" style="edgeLabel;html=1;align=center;verticalAlign=middle;resizable=0;points=[];" vertex="1" connectable="0" parent="bTUChL5ESr7YYkA7Wxx2-2">
          <mxGeometry x="0.0597" y="2" relative="1" as="geometry">
            <mxPoint y="12" as="offset" />
          </mxGeometry>
        </mxCell>
        <mxCell id="bTUChL5ESr7YYkA7Wxx2-5" value="" style="html=1;points=[[0,0,0,0,5],[0,1,0,0,-5],[1,0,0,0,5],[1,1,0,0,-5]];perimeter=orthogonalPerimeter;outlineConnect=0;targetShapes=umlLifeline;portConstraint=eastwest;newEdgeStyle={&quot;curved&quot;:0,&quot;rounded&quot;:0};" vertex="1" parent="1">
          <mxGeometry x="530" y="660" width="10" height="80" as="geometry" />
        </mxCell>
        <mxCell id="bTUChL5ESr7YYkA7Wxx2-6" value="" style="endArrow=block;endFill=1;html=1;align=left;verticalAlign=top;rounded=0;" edge="1" parent="1">
          <mxGeometry x="-1" relative="1" as="geometry">
            <mxPoint x="965" y="710" as="sourcePoint" />
            <mxPoint x="540" y="710" as="targetPoint" />
          </mxGeometry>
        </mxCell>
        <mxCell id="bTUChL5ESr7YYkA7Wxx2-7" value="5" style="edgeLabel;resizable=0;html=1;align=left;verticalAlign=bottom;" connectable="0" vertex="1" parent="bTUChL5ESr7YYkA7Wxx2-6">
          <mxGeometry x="-1" relative="1" as="geometry">
            <mxPoint x="-15" as="offset" />
          </mxGeometry>
        </mxCell>
        <mxCell id="bTUChL5ESr7YYkA7Wxx2-8" value="Thông báo ghi thành công và quay trở vể màn hình phía trước" style="edgeLabel;html=1;align=center;verticalAlign=middle;resizable=0;points=[];" vertex="1" connectable="0" parent="bTUChL5ESr7YYkA7Wxx2-6">
          <mxGeometry x="0.0391" y="1" relative="1" as="geometry">
            <mxPoint x="-4" y="9" as="offset" />
          </mxGeometry>
        </mxCell>
        <mxCell id="bTUChL5ESr7YYkA7Wxx2-9" value="" style="endArrow=none;dashed=1;html=1;dashPattern=1 3;strokeWidth=2;rounded=0;entryX=0;entryY=1;entryDx=0;entryDy=-5;entryPerimeter=0;" edge="1" parent="1" source="bTUChL5ESr7YYkA7Wxx2-5" target="lyJrj0wZpvNIMdLv7o4I-16">
          <mxGeometry width="50" height="50" relative="1" as="geometry">
            <mxPoint x="390" y="560" as="sourcePoint" />
            <mxPoint x="440" y="510" as="targetPoint" />
          </mxGeometry>
        </mxCell>
        <mxCell id="bTUChL5ESr7YYkA7Wxx2-11" value="" style="endArrow=block;endFill=1;html=1;align=left;verticalAlign=top;rounded=0;" edge="1" parent="1" source="bTUChL5ESr7YYkA7Wxx2-5">
          <mxGeometry x="-1" relative="1" as="geometry">
            <mxPoint x="525" y="720" as="sourcePoint" />
            <mxPoint x="190" y="720" as="targetPoint" />
          </mxGeometry>
        </mxCell>
        <mxCell id="bTUChL5ESr7YYkA7Wxx2-12" value="6" style="edgeLabel;resizable=0;html=1;align=left;verticalAlign=bottom;" connectable="0" vertex="1" parent="bTUChL5ESr7YYkA7Wxx2-11">
          <mxGeometry x="-1" relative="1" as="geometry">
            <mxPoint x="-240" as="offset" />
          </mxGeometry>
        </mxCell>
        <mxCell id="bTUChL5ESr7YYkA7Wxx2-13" value="Hiển thị màn hình trước khi chọn vào thêm hoặc sửa chi tiêu" style="edgeLabel;html=1;align=center;verticalAlign=middle;resizable=0;points=[];" vertex="1" connectable="0" parent="bTUChL5ESr7YYkA7Wxx2-11">
          <mxGeometry x="0.0391" y="1" relative="1" as="geometry">
            <mxPoint x="-4" y="9" as="offset" />
          </mxGeometry>
        </mxCell>
      </root>
    </mxGraphModel>
  </diagram>
</mxfile>
